<svg id="Group_129" data-name="Group 129" xmlns="http://www.w3.org/2000/svg" xmlns:xlink="http://www.w3.org/1999/xlink" width="82.875" height="65.501" viewBox="0 0 82.875 65.501">
  <defs>
    <clipPath id="clip-path">
      <rect id="Rectangle_224" data-name="Rectangle 224" width="82.875" height="65.501" fill="none"/>
    </clipPath>
  </defs>
  <g id="Group_117" data-name="Group 117" clip-path="url(#clip-path)">
    <path id="Path_839" data-name="Path 839" d="M16.157,40.246a3.051,3.051,0,0,1-2.992-2.472L8.549,13.732A3.039,3.039,0,0,1,10.471,10.3l.29-.109a3.047,3.047,0,0,1,4.069,2.316l4.325,24.151a3.047,3.047,0,0,1-3,3.584M9.22,13.6l4.616,24.042a2.363,2.363,0,0,0,4.647-.862L14.158,12.632A2.364,2.364,0,0,0,11,10.836l-.29.109A2.358,2.358,0,0,0,9.22,13.6" transform="translate(-6.558 -7.723)" fill="#fff"/>
    <rect id="Rectangle_220" data-name="Rectangle 220" width="0.683" height="21.581" transform="matrix(0.982, -0.19, 0.19, 0.982, 9.99, 32.247)" fill="#fff"/>
    <path id="Path_840" data-name="Path 840" d="M100.1,77.817a3.049,3.049,0,0,1-3.049-3.09l.342-24.478a3.039,3.039,0,0,1,2.576-2.968l.306-.048a3.046,3.046,0,0,1,3.516,3.091l-.648,24.527a3.047,3.047,0,0,1-3.043,2.967M98.076,50.258l-.342,24.478a2.363,2.363,0,0,0,4.726.1l.648-24.527a2.363,2.363,0,0,0-2.728-2.4l-.306.048a2.357,2.357,0,0,0-2,2.3" transform="translate(-74.94 -36.443)" fill="#fff"/>
    <rect id="Rectangle_221" data-name="Rectangle 221" width="21.581" height="0.684" transform="translate(24.713 62.698) rotate(-89.293)" fill="#fff"/>
    <path id="Path_841" data-name="Path 841" d="M174.525,30.5a3.049,3.049,0,0,1-3.037-3.319L173.672,2.8A3.039,3.039,0,0,1,176.464.034l.309-.025a3.047,3.047,0,0,1,3.274,3.347l-2.494,24.408a3.048,3.048,0,0,1-3.029,2.738M174.353,2.86l-2.184,24.383a2.363,2.363,0,0,0,4.705.451l2.494-24.408a2.364,2.364,0,0,0-2.54-2.6l-.309.025a2.358,2.358,0,0,0-2.166,2.145" transform="translate(-132.409 0)" fill="#fff"/>
    <rect id="Rectangle_222" data-name="Rectangle 222" width="21.581" height="0.684" transform="matrix(0.088, -0.996, 0.996, 0.088, 39.83, 51.723)" fill="#fff"/>
    <path id="Path_842" data-name="Path 842" d="M297.335,95.023a3.049,3.049,0,0,1-2.961-3.766l5.771-23.791a3.046,3.046,0,0,1,3.171-2.322l.31.021a3.047,3.047,0,0,1,2.742,3.795l-6.081,23.769a3.05,3.05,0,0,1-2.952,2.293m3.474-27.4-5.771,23.791a2.363,2.363,0,0,0,4.586,1.143l6.081-23.769a2.363,2.363,0,0,0-2.127-2.944l-.31-.021a2.36,2.36,0,0,0-2.459,1.8" transform="translate(-227.241 -50.298)" fill="#fff"/>
    <rect id="Rectangle_223" data-name="Rectangle 223" width="21.581" height="0.683" transform="translate(64.244 65.341) rotate(-76.446)" fill="#fff"/>
    <path id="Path_843" data-name="Path 843" d="M.6,236.167l-.6-.324c.133-.247,3.4-6.09,15.3-9.338,6.949-1.9,15.426-2.5,25.2-1.8,12.191.876,26.447,3.8,42.373,8.693l-.2.653c-15.877-4.877-30.083-7.792-42.222-8.665-9.693-.7-18.094-.1-24.968,1.776C3.856,230.336.633,236.109.6,236.167" transform="translate(0 -173.294)" fill="#fff"/>
  </g>
</svg>
