<svg id="Group_126" data-name="Group 126" xmlns="http://www.w3.org/2000/svg" xmlns:xlink="http://www.w3.org/1999/xlink" width="59.527" height="58.565" viewBox="0 0 59.527 58.565">
  <defs>
    <clipPath id="clip-path">
      <rect id="Rectangle_228" data-name="Rectangle 228" width="59.527" height="58.565" fill="none"/>
    </clipPath>
  </defs>
  <g id="Group_125" data-name="Group 125" clip-path="url(#clip-path)">
    <path id="Path_859" data-name="Path 859" d="M31.526,142.094a10.745,10.745,0,0,1-7.065-3.386c-4.262-4.207-6.423-11.528-6.423-21.76V116.6H71.48l.052.281A39.726,39.726,0,0,1,72,124.446c-.232,7.024-2.344,10.975-4.075,13.053-2.54,3.049-6.21,4.595-10.909,4.595h-25.5Zm-12.8-24.8c.049,9.711,2.19,16.937,6.2,20.911a10.2,10.2,0,0,0,6.615,3.207H57.021c4.485,0,7.977-1.462,10.381-4.346,5.3-6.366,3.8-17.832,3.5-19.771Z" transform="translate(-13.913 -89.94)" fill="#fff"/>
    <path id="Path_860" data-name="Path 860" d="M105.036,233.076H76.7l1.536-6.83.67.15-1.348,5.994H104.22l-1.054-6.01.676-.118Z" transform="translate(-59.158 -174.511)" fill="#fff"/>
    <path id="Path_861" data-name="Path 861" d="M146.845,27.2l-.574-.375L162.182,2.474A5.464,5.464,0,0,1,168.833.413l.139.058A5.459,5.459,0,0,1,171.6,8.28L160.562,27.1l-.592-.347L171.009,7.933a4.774,4.774,0,0,0-2.3-6.828l-.14-.058a4.778,4.778,0,0,0-5.815,1.8Z" transform="translate(-112.824 -0.001)" fill="#fff"/>
    <path id="Path_862" data-name="Path 862" d="M46.949,55.876c-.074-.092-7.479-9.281-15.59-13.75l.331-.6c8.232,4.536,15.72,13.829,15.794,13.922Z" transform="translate(-24.188 -32.03)" fill="#fff"/>
    <path id="Path_863" data-name="Path 863" d="M107.32,39.41l-.645-.233a54.607,54.607,0,0,1,2.527-5.693c2.123-4.132,4.319-7.094,6.528-8.8l.42.543c-5.091,3.941-8.793,14.085-8.83,14.187" transform="translate(-82.282 -19.036)" fill="#fff"/>
    <path id="Path_864" data-name="Path 864" d="M14.157,40.437a9.8,9.8,0,0,1-4.3-.981C6.094,37.643,3.635,33.6,2.235,30.536A34.526,34.526,0,0,1,.083,24.281L0,23.9l.393-.029c9.236-.682,15.464.967,18.509,4.9,3.326,4.3,1.558,9.666,1.481,9.892l-.046.134-.127.063a13.649,13.649,0,0,1-6.054,1.579M.846,24.522c.509,2.018,3.162,11.357,9.309,14.316,2.846,1.37,6.082,1.192,9.618-.529.243-.838,1.407-5.479-1.419-9.125C15.5,25.5,9.613,23.933.846,24.522" transform="translate(0 -18.293)" fill="#fff"/>
    <path id="Path_865" data-name="Path 865" d="M109.364,19.028q-.686,0-1.415-.06l-.142-.012-.092-.108a7.755,7.755,0,0,1-1.45-6.646c1.024-3.819,5.149-7.046,12.261-9.591l.368-.132.082.382a23.48,23.48,0,0,1,.42,4.853c-.057,3.576-.974,6.478-2.653,8.392-1.7,1.942-4.183,2.922-7.379,2.922m-1.21-.732c3.586.265,6.3-.623,8.074-2.643,3.339-3.805,2.439-10.574,2.151-12.259-6.648,2.438-10.5,5.457-11.448,8.976a7.155,7.155,0,0,0,1.224,5.926" transform="translate(-81.777 -1.912)" fill="#fff"/>
  </g>
</svg>
