<svg id="Group_111" data-name="Group 111" xmlns="http://www.w3.org/2000/svg" xmlns:xlink="http://www.w3.org/1999/xlink" width="74.317" height="74.925" viewBox="0 0 74.317 74.925">
  <defs>
    <clipPath id="clip-path">
      <rect id="Rectangle_217" data-name="Rectangle 217" width="74.317" height="74.925" fill="none"/>
    </clipPath>
  </defs>
  <g id="Group_110" data-name="Group 110" clip-path="url(#clip-path)">
    <path id="Path_835" data-name="Path 835" d="M2.282,74.925a1.054,1.054,0,0,1-.128-.008,1.277,1.277,0,0,1-.893-.633C-1,70.856.195,50.006,1.615,45.036c1.519-5.319,10.011-6,17.24-6,6.48,0,9.634-2.17,9.666-2.192l.552.778c-.136.1-3.4,2.368-10.218,2.368-6.893,0-14.979.6-16.323,5.309C1.208,49.93.027,70.679,2.057,73.759c.1.148.178.207.218.212a.186.186,0,0,0,.109-.054C3.528,72.946,4.193,66.2,4.342,62.17l.95-.043c.65,5.07,1.765,10.817,2.485,11.644.748-.754,1.349-6.462,1.485-11.514l.952-.027c0,.029.252,2.944.724,5.857.9,5.527,1.734,5.738,1.742,5.739.075-.018.761-.285,1.179-4.138.261-2.4.328-5.29.378-7.4.02-.855.037-1.594.063-2.116.268-5.354,2.3-8.573,5.73-9.062,1.256-.179,2.806-.3,4.6-.443,4.311-.339,9.676-.761,13.884-2.258,4.25-1.512,7.184-6.651,8.9-10.7l.04-.1c-3.3-12.394-5.741-31.133-3.081-36.11A2.5,2.5,0,0,1,45.913.136a3.432,3.432,0,0,1,3.238.691c3.9,3.323,3.378,16.283,2.717,23.713A50.674,50.674,0,0,1,48.456,37.65c.5,1.88,1.026,3.6,1.548,5.075,4.038,11.419,10.773,21.031,13.343,21.939a.479.479,0,0,0,.359.029c.771-.474-.589-4.761-3.84-10.386l.8-.522c3.538,4.795,7.327,8.6,8.109,8.144.59-.344-.445-4.409-3.858-10.861l.808-.5c.016.022,1.628,2.248,3.418,4.323,3.29,3.815,4.067,3.522,4.074,3.517.023-.013.084-.049.122-.2.464-1.84-3.715-8.731-6.212-12.848-.545-.9-1.038-1.711-1.434-2.386a79.537,79.537,0,0,1-4.784-10.184l.892-.337a78.415,78.415,0,0,0,4.715,10.039c.394.672.884,1.481,1.426,2.374,3.766,6.21,6.84,11.517,6.321,13.577a1.225,1.225,0,0,1-.563.788c-1.213.714-3.351-1.48-5.283-3.72-.229-.265-.454-.533-.674-.8.189.423.38.858.563,1.3,2.18,5.2,1.653,6.336.949,6.747-1.3.755-3.956-1.794-6.249-4.471.1.214.2.43.3.647,1.711,3.815,2,5.9.906,6.577a1.323,1.323,0,0,1-1.177.058c-3.085-1.09-9.984-11.378-13.924-22.52-.424-1.2-.844-2.538-1.255-3.985-2.109,4.658-5.08,8.851-9.013,10.25-4.327,1.539-9.762,1.967-14.129,2.31-1.78.14-3.317.261-4.542.436-3.749.536-4.741,4.736-4.912,8.166-.026.51-.043,1.242-.063,2.091-.182,7.769-.6,12.054-2.3,12.445a.983.983,0,0,1-.823-.185c-1-.727-1.7-3.866-2.163-6.826-.261,2.94-.726,6.049-1.55,6.783a.871.871,0,0,1-.669.239c-.59-.052-1.311-.6-2.4-6.486-.1-.559-.2-1.119-.291-1.66-.3,3.2-.9,7.089-2,8.024a1.093,1.093,0,0,1-.718.281M46.942.954a3.22,3.22,0,0,0-.793.106,1.612,1.612,0,0,0-.934.9C42.783,6.506,45.008,24,48.056,36.109a48.319,48.319,0,0,0,2.862-11.653c1.1-12.331.228-20.678-2.385-22.9a2.379,2.379,0,0,0-1.591-.6" transform="translate(0 0)" fill="#fff"/>
  </g>
</svg>
