<svg id="Group_113" data-name="Group 113" xmlns="http://www.w3.org/2000/svg" xmlns:xlink="http://www.w3.org/1999/xlink" width="71.898" height="86.619" viewBox="0 0 71.898 86.619">
  <defs>
    <clipPath id="clip-path">
      <rect id="Rectangle_218" data-name="Rectangle 218" width="71.898" height="86.619" fill="none"/>
    </clipPath>
  </defs>
  <g id="Group_112" data-name="Group 112" clip-path="url(#clip-path)">
    <path id="Path_836" data-name="Path 836" d="M74.349,95.017c-.866,0-1.506-.145-1.709-.519a.845.845,0,0,1-.04-.712c.287-.8,1.774-1.721,3.231-2.464-2.24.365-4.648.547-5.118-.237a.664.664,0,0,1-.047-.58c.259-.712,1.985-1.606,3.735-2.353-1.864.228-3.675.266-4.09-.357a.675.675,0,0,1-.084-.563c.328-1.243,4.461-3.409,10.265-6.334l.212-.107c11.191-5.64,23.107-15.608,26.563-22.219,3.309-6.329-11.647-27.691-11.8-27.907l.593-.418c.629.893,15.36,21.942,11.848,28.66S92.335,75.742,81.029,81.44l-.212.107c-2.226,1.122-4.749,2.394-6.692,3.509-2.848,1.636-3.166,2.217-3.2,2.354.4.4,3.574.128,7-.6l.193.7c-3.509,1.205-6.572,2.668-6.771,3.227.4.432,3.824.093,7.437-.741l.216.69c-2.039.814-5.4,2.442-5.723,3.349-.028.077-.012.105-.005.119a1.44,1.44,0,0,0,.892.17c3.116,0,13.639-2.446,25.721-8.509a60.591,60.591,0,0,0,17.065-12.478c4.871-5.288,7.445-10.777,7.445-15.874,0-11.8-12.487-35.115-12.613-35.349l.639-.344c.032.059,3.208,5.972,6.342,13.279,4.218,9.835,6.357,17.377,6.358,22.414,0,5.282-2.641,10.941-7.637,16.365a61.323,61.323,0,0,1-17.273,12.634,102.055,102.055,0,0,1-18.51,7.212,34.867,34.867,0,0,1-7.356,1.344" transform="translate(-53.227 -16.505)" fill="#fff"/>
    <path id="Path_837" data-name="Path 837" d="M13.288,86.62A28.383,28.383,0,0,1,.136,65.631a24.89,24.89,0,0,1,8.073-21.11,24.255,24.255,0,0,1,11.81-6.2,12.607,12.607,0,0,1-3.106-8.371c-.149-5.179,3.6-11.8,11.148-19.68A113.449,113.449,0,0,1,39.413,0l.441.575C39.628.75,17.295,18.011,17.638,29.931a11.781,11.781,0,0,0,3.242,8.236,16.229,16.229,0,0,1,8.79.688c1.028.491,1.569,1.121,1.523,1.774-.066.929-1.25,1.483-3.094,1.443a11.589,11.589,0,0,1-7.482-3.139A23.51,23.51,0,0,0,8.7,45.052,24.181,24.181,0,0,0,.858,65.558,27.645,27.645,0,0,0,13.665,86Zm8.261-47.834a10.807,10.807,0,0,0,6.566,2.561c1.491.034,2.326-.373,2.355-.769.023-.32-.4-.729-1.112-1.068a15.019,15.019,0,0,0-7.809-.724" transform="translate(0 -0.001)" fill="#fff"/>
    <path id="Path_838" data-name="Path 838" d="M239.484,279.6l-.591-.42c5.953-8.389,1.615-24.18,1.57-24.339l.7-.2a51.416,51.416,0,0,1,1.5,9.159c.332,4.7.052,11.249-3.174,15.8" transform="translate(-181.136 -193.077)" fill="#fff"/>
  </g>
</svg>
