<svg id="Group_124" data-name="Group 124" xmlns="http://www.w3.org/2000/svg" xmlns:xlink="http://www.w3.org/1999/xlink" width="53.599" height="64.275" viewBox="0 0 53.599 64.275">
  <defs>
    <clipPath id="clip-path">
      <rect id="Rectangle_227" data-name="Rectangle 227" width="53.599" height="64.275" fill="none"/>
    </clipPath>
  </defs>
  <g id="Group_123" data-name="Group 123" clip-path="url(#clip-path)">
    <path id="Path_857" data-name="Path 857" d="M105.418,64.275a6.819,6.819,0,0,1-1.092-.092C96.97,62.99,93.5,53.057,90.545,38.51c-.148-.729-.28-1.5-.392-2.282l.7-.1c.111.772.24,1.526.386,2.241,2.893,14.258,6.245,23.985,13.2,25.112a4.122,4.122,0,0,0,3.455-.742c2.384-1.955,2.567-7.021,2.715-11.093.041-1.139.08-2.214.165-3.123.812-8.738,5.34-19.484,7.967-25.113,2.708-5.8,3.7-8.734,2.4-10.769-.628-.986-1.862-.634-3.672.017a5.237,5.237,0,0,1-3.084.527c-1.21-.4-1.078-1.69-.94-3.052a8.018,8.018,0,0,0-.27-3.9c-.7-1.742-4.337-2.819-6.1-2.179-3.5,1.272-4.189.4-4.843-1.064a4.6,4.6,0,0,0-.7-1.218A4.344,4.344,0,0,0,98.2.721a5.621,5.621,0,0,0-4.4,2.736,8.275,8.275,0,0,0-1.191,2.952c-.182.9-.462,2.365-.766,4.23l-.7-.114c.305-1.876.588-3.35.771-4.256a8.972,8.972,0,0,1,1.295-3.2A6.43,6.43,0,0,1,98.151.013a5.046,5.046,0,0,1,3.92,1.295,5.241,5.241,0,0,1,.818,1.4c.507,1.139.812,1.827,3.952.686,2.287-.832,6.211.616,7,2.582a8.7,8.7,0,0,1,.317,4.234c-.151,1.48-.152,2.1.458,2.306a5.036,5.036,0,0,0,2.619-.521c1.655-.594,3.532-1.269,4.511.271,1.474,2.315.464,5.4-2.358,11.45-2.607,5.587-7.1,16.248-7.9,24.878-.082.889-.121,1.954-.162,3.083-.153,4.214-.343,9.458-2.975,11.616a4.476,4.476,0,0,1-2.926.986" transform="translate(-68.818 0)" fill="#fff"/>
    <path id="Path_858" data-name="Path 858" d="M13.684,77.717c-3.419,0-6.277-3.223-10.207-11.006C-2.409,55.053.941,35.966,1.025,35.5A11.615,11.615,0,0,1,5.768,27.26a7.95,7.95,0,0,1,6.2-1.313c2.167.544,2.208,2.671,2.243,4.547.035,1.853.138,2.994,1.27,3.216,1.409.276,2.6-.738,3.852-1.813,1.3-1.112,2.647-2.26,4.359-2.036,3.192.421,5.766,1.3,4.926,7.772-.525,4.043-2.476,8.632-4.363,13.071-.991,2.331-2.016,4.742-2.811,7.025a40.6,40.6,0,0,0-1.516,8.883c-.483,4.891-.94,9.51-3.673,10.57a7.115,7.115,0,0,1-2.572.535M10.427,26.471a7.778,7.778,0,0,0-4.262,1.378A10.921,10.921,0,0,0,1.727,35.6l0,.014C1.69,35.808-1.711,54.861,4.11,66.39,9.342,76.752,12.324,77.944,16,76.52c2.326-.9,2.762-5.311,3.223-9.978A41.081,41.081,0,0,1,20.775,57.5c.8-2.306,1.833-4.727,2.829-7.069,1.868-4.395,3.8-8.939,4.312-12.885.759-5.848-1.309-6.58-4.314-6.976-1.4-.186-2.568.814-3.805,1.872-1.329,1.136-2.7,2.311-4.45,1.969-1.776-.348-1.81-2.153-1.844-3.9-.034-1.78-.066-3.46-1.706-3.872a5.626,5.626,0,0,0-1.37-.164" transform="translate(0 -19.665)" fill="#fff"/>
  </g>
</svg>
