<svg id="Group_122" data-name="Group 122" xmlns="http://www.w3.org/2000/svg" xmlns:xlink="http://www.w3.org/1999/xlink" width="47" height="66.881" viewBox="0 0 47 66.881">
  <defs>
    <clipPath id="clip-path">
      <rect id="Rectangle_226" data-name="Rectangle 226" width="47" height="66.881" fill="none"/>
    </clipPath>
  </defs>
  <g id="Group_121" data-name="Group 121" clip-path="url(#clip-path)">
    <path id="Path_852" data-name="Path 852" d="M2.7,127.03l-.076-.035a4.525,4.525,0,0,1-2.158-6.1L19.057,83.127A4.5,4.5,0,0,1,23.079,80.6h.038a4.5,4.5,0,0,1,4.025,2.46L46.5,120.793a4.525,4.525,0,0,1-2.188,6.2l-.074.033Zm-1.551-5.8h0a3.764,3.764,0,0,0,1.721,5.042l41.2,0a3.763,3.763,0,0,0,1.748-5.124L26.465,83.407a3.7,3.7,0,0,0-3.346-2.046h-.034a3.7,3.7,0,0,0-3.346,2.1Z" transform="translate(0 -60.149)" fill="#fff"/>
    <path id="Path_853" data-name="Path 853" d="M58.623,154.592a36.91,36.91,0,0,1-13.011-2.615l.3-.7c.133.058,13.39,5.711,22.756.024l.4.651a19.961,19.961,0,0,1-10.445,2.639" transform="translate(-34.039 -112.895)" fill="#fff"/>
    <path id="Path_854" data-name="Path 854" d="M83.782,14.874l-.538-.538,2.284-2.284a3.212,3.212,0,0,0,0-4.536,3.968,3.968,0,0,1,0-5.613l1.9-1.9.538.538-1.9,1.9a3.208,3.208,0,0,0,0,4.536,3.973,3.973,0,0,1,0,5.613Z" transform="translate(-62.122)" fill="#fff"/>
    <path id="Path_855" data-name="Path 855" d="M66.782,14.874l-.538-.538,2.284-2.284a3.211,3.211,0,0,0,0-4.536,3.968,3.968,0,0,1,0-5.613l1.9-1.9.538.538-1.9,1.9a3.208,3.208,0,0,0,0,4.536,3.973,3.973,0,0,1,0,5.613Z" transform="translate(-49.436)" fill="#fff"/>
    <path id="Path_856" data-name="Path 856" d="M100.782,14.874l-.538-.538,2.284-2.284a3.212,3.212,0,0,0,0-4.536,3.968,3.968,0,0,1,0-5.613l1.9-1.9.538.538-1.9,1.9a3.208,3.208,0,0,0,0,4.536,3.973,3.973,0,0,1,0,5.613Z" transform="translate(-74.809)" fill="#fff"/>
  </g>
</svg>
