<svg id="Group_128" data-name="Group 128" xmlns="http://www.w3.org/2000/svg" xmlns:xlink="http://www.w3.org/1999/xlink" width="59.441" height="59" viewBox="0 0 59.441 59">
  <defs>
    <clipPath id="clip-path">
      <rect id="Rectangle_229" data-name="Rectangle 229" width="59.441" height="59" fill="none"/>
    </clipPath>
  </defs>
  <g id="Group_127" data-name="Group 127" clip-path="url(#clip-path)">
    <path id="Path_866" data-name="Path 866" d="M40.658,97.4c-3.549-6.438-5.893-15.272-6.966-26.255a148.667,148.667,0,0,1-.461-21.117l.7.035c-.364,7.241-.912,32.029,7.341,47Z" transform="translate(-25.369 -38.399)" fill="#fff"/>
    <path id="Path_867" data-name="Path 867" d="M25.6,12.864,25.4,12.55c-.054-.082-5.337-8.235-.029-12.337L25.643,0l.213.275a15.159,15.159,0,0,1,2.244,4.4c1.011,3.313.251,6.067-2.2,7.963ZM25.515.994c-3.8,3.324-.607,9.368.261,10.842,1.983-1.705,2.543-4.04,1.661-6.945a14.719,14.719,0,0,0-1.923-3.9" transform="translate(-17.657)" fill="#fff"/>
    <path id="Path_868" data-name="Path 868" d="M32.957,56.976l.1-.472c.015-.069,1.576-6.877,8.469-8.066l.327-.056.073.323a6.311,6.311,0,0,1-1.059,4.739c-1.383,1.931-3.883,3.1-7.431,3.481ZM41.3,49.192a10.122,10.122,0,0,0-7.417,6.978c3.062-.408,5.219-1.458,6.417-3.123a5.708,5.708,0,0,0,1-3.855" transform="translate(-25.296 -37.136)" fill="#fff"/>
    <path id="Path_869" data-name="Path 869" d="M34.941,102.29c-.113,0-.226,0-.341,0l-.4-.012.065-.394c.011-.068,1.2-6.777,7.7-6.777h.352l0,.352a7.585,7.585,0,0,1-2.127,4.974,7.269,7.269,0,0,1-5.242,1.861m6.646-6.482c-4.782.211-6.211,4.435-6.546,5.784a6.557,6.557,0,0,0,4.654-1.661,6.859,6.859,0,0,0,1.893-4.124" transform="translate(-26.25 -72.997)" fill="#fff"/>
    <path id="Path_870" data-name="Path 870" d="M38.9,137.359l.047-.4c.01-.08,1.043-8.053,8.2-9.007l.364-.049.03.366a9.638,9.638,0,0,1-2.119,6.651,8.06,8.06,0,0,1-6.125,2.429Zm7.959-8.653c-5.413.958-6.851,6.4-7.151,7.936a7.207,7.207,0,0,0,5.2-2.183,8.839,8.839,0,0,0,1.955-5.753" transform="translate(-29.86 -98.176)" fill="#fff"/>
    <path id="Path_871" data-name="Path 871" d="M5.6,115.394a5.187,5.187,0,0,1-3.109-.927C.169,112.8.069,109.508.066,109.369l-.008-.335.334-.021c7.688-.483,8.352,5.464,8.358,5.524l.028.282-.271.084a9.9,9.9,0,0,1-2.906.49m-4.811-5.7A6.1,6.1,0,0,0,2.9,113.9c1.24.89,2.958,1.031,5.109.42-.216-1.086-1.392-4.842-7.222-4.633" transform="translate(-0.045 -83.652)" fill="#fff"/>
    <path id="Path_872" data-name="Path 872" d="M8.026,159.884a8.087,8.087,0,0,1-5.215-1.644A8.082,8.082,0,0,1,.022,152.93L0,152.62l.305-.057c7.663-1.437,10.065,6.637,10.088,6.718l.109.383-.393.058a14.169,14.169,0,0,1-2.084.162M.758,153.193a7.409,7.409,0,0,0,2.5,4.509,8.233,8.233,0,0,0,6.339,1.387,11.432,11.432,0,0,0-1.871-3.264,7.153,7.153,0,0,0-6.963-2.632" transform="translate(0 -116.969)" fill="#fff"/>
    <path id="Path_873" data-name="Path 873" d="M6.966,65.784a6.834,6.834,0,0,1-5.056-1.813A7.651,7.651,0,0,1,.036,58.349l.027-.295.3-.021c6.748-.484,8.019,7.222,8.031,7.3l.057.368-.371.032q-.573.05-1.108.05M.718,58.713a6.86,6.86,0,0,0,1.691,4.769,6.527,6.527,0,0,0,5.216,1.585,11.031,11.031,0,0,0-1.279-3.194A6.04,6.04,0,0,0,.718,58.713" transform="translate(-0.013 -44.528)" fill="#fff"/>
    <path id="Path_874" data-name="Path 874" d="M111.389,96.228a6.258,6.258,0,0,1-3.911-1.622c-1.238-.933-2.055-1.548-3.544-.485-3.175,2.268-6.944,2.3-9.166.079-3.437-3.437-10.049-23.067-6.463-30.957,1.861-4.093,4.619-5.478,6.605-5.92a8.444,8.444,0,0,1,3.923.035l.01,0a9.227,9.227,0,0,1,2.059,1.177,10.873,10.873,0,0,0,5.524,2.292,9.068,9.068,0,0,0,4.031-1.029c2.212-.93,4.72-1.984,8.373-.814,6.493,2.078,8.84,8.077,6.977,17.83a33.825,33.825,0,0,1-5.665,12.746c-2.7,3.776-5.642,6.241-7.872,6.593a5.645,5.645,0,0,1-.881.071m-6.021-3.358a4.374,4.374,0,0,1,2.53,1.178,5.162,5.162,0,0,0,4.264,1.42c4.22-.666,11.264-9.894,12.961-18.781.935-4.9.791-8.831-.428-11.7a9.348,9.348,0,0,0-6.076-5.34c-3.408-1.09-5.686-.133-7.89.793a9.6,9.6,0,0,1-4.345,1.082,11.447,11.447,0,0,1-5.871-2.411,8.9,8.9,0,0,0-1.882-1.091c-.326-.1-6.4-1.742-9.689,5.506-1.484,3.264-1.262,9.325.609,16.628,1.538,6,3.994,11.828,5.712,13.547,2.007,2.006,5.329,1.945,8.267-.153a3.151,3.151,0,0,1,1.839-.683" transform="translate(-66.985 -43.838)" fill="#fff"/>
    <path id="Path_875" data-name="Path 875" d="M168.383,20.984l-.149-.34a11.7,11.7,0,0,1-.2-8.374,10.383,10.383,0,0,1,6.2-5.572l.39-.154.08.412c.019.1,1.819,9.833-5.993,13.858Zm5.7-13.47a9.52,9.52,0,0,0-5.4,5.022,10.963,10.963,0,0,0,.053,7.474c6.083-3.405,5.583-10.666,5.349-12.5" transform="translate(-128.436 -5.023)" fill="#fff"/>
  </g>
</svg>
