<svg id="Group_120" data-name="Group 120" xmlns="http://www.w3.org/2000/svg" xmlns:xlink="http://www.w3.org/1999/xlink" width="58.227" height="53.81" viewBox="0 0 58.227 53.81">
  <defs>
    <clipPath id="clip-path">
      <rect id="Rectangle_225" data-name="Rectangle 225" width="58.227" height="53.81" fill="none"/>
    </clipPath>
  </defs>
  <g id="Group_119" data-name="Group 119" clip-path="url(#clip-path)">
    <path id="Path_844" data-name="Path 844" d="M2.271,197.717a2.271,2.271,0,0,1,0-4.542l31.363-.015h0a2.271,2.271,0,0,1,0,4.542l-31.363.015Zm-1.506-2.27a1.507,1.507,0,0,0,1.506,1.5h0l31.363-.015a1.506,1.506,0,0,0,0-3.012h0L2.27,193.94a1.508,1.508,0,0,0-1.5,1.507" transform="translate(0 -143.906)" fill="#fff"/>
    <path id="Path_845" data-name="Path 845" d="M4.688,105.381a50.457,50.457,0,0,1-.829-9.367c.048-8.679,2.492-13.492,4.534-16C11.26,76.49,15.438,74.7,20.811,74.7h.012c5.368,0,9.543,1.783,12.411,5.3,2.045,2.508,4.494,7.318,4.55,16a50.471,50.471,0,0,1-.82,9.367l-.749-.154c.033-.162,3.264-16.344-3.575-24.729-2.715-3.329-6.692-5.017-11.817-5.017h-.011c-5.132,0-9.11,1.695-11.824,5.03-6.833,8.4-3.584,24.568-3.55,24.731Z" transform="translate(-2.874 -55.652)" fill="#fff"/>
    <path id="Path_846" data-name="Path 846" d="M52.754,60.712,52,60.6c.037-.239.942-5.857,4.675-5.859h0c3.732,0,4.642,5.615,4.679,5.854l-.756.117c-.008-.052-.845-5.206-3.923-5.206h0c-3.079,0-3.911,5.158-3.919,5.21" transform="translate(-38.739 -40.78)" fill="#fff"/>
    <path id="Path_847" data-name="Path 847" d="M62.985,42.57c-.054-.346-.493-3.416.584-4.673a1.522,1.522,0,0,1,1.187-.546h0a1.523,1.523,0,0,1,1.187.545c1.078,1.257.642,4.327.589,4.673l-.756-.116c.13-.844.308-3.219-.413-4.058a.75.75,0,0,0-.607-.278h0a.749.749,0,0,0-.607.279c-.72.84-.54,3.214-.409,4.059Z" transform="translate(-46.825 -27.826)" fill="#fff"/>
    <path id="Path_848" data-name="Path 848" d="M156.506,160.381H134.965v-.765h21.541a1.506,1.506,0,0,0,0-3.012H135.071v-.765h21.435a2.271,2.271,0,0,1,0,4.542" transform="translate(-100.55 -116.102)" fill="#fff"/>
    <path id="Path_849" data-name="Path 849" d="M128.772,68.023l-.749-.155c.033-.163,3.272-16.342-3.563-24.731-2.716-3.333-6.694-5.023-11.826-5.023-7.508,0-12.481,3.581-14.781,10.643l-.727-.237c2.414-7.413,7.632-11.171,15.508-11.171,5.373,0,9.552,1.785,12.42,5.306,7.064,8.672,3.858,24.689,3.718,25.367" transform="translate(-72.36 -27.826)" fill="#fff"/>
    <path id="Path_850" data-name="Path 850" d="M140.355,23.361l-.756-.117c.037-.239.945-5.856,4.678-5.856s4.641,5.617,4.678,5.857l-.756.117c-.008-.052-.843-5.208-3.921-5.208s-3.914,5.156-3.922,5.208" transform="translate(-104.003 -12.954)" fill="#fff"/>
    <path id="Path_851" data-name="Path 851" d="M154.147,5.219l-.756-.117c.13-.844.309-3.218-.411-4.058a.8.8,0,0,0-1.214,0c-.721.84-.541,3.214-.411,4.058l-.756.117c-.054-.346-.491-3.416.586-4.673a1.566,1.566,0,0,1,2.376,0c1.078,1.257.64,4.327.586,4.673" transform="translate(-112.099 0)" fill="#fff"/>
  </g>
</svg>
