<svg xmlns="http://www.w3.org/2000/svg" xmlns:xlink="http://www.w3.org/1999/xlink" width="91.207" height="87.398" viewBox="0 0 91.207 87.398">
  <defs>
    <clipPath id="clip-path">
      <rect id="Rectangle_216" data-name="Rectangle 216" width="91.207" height="87.398" fill="none"/>
    </clipPath>
  </defs>
  <g id="Group_109" data-name="Group 109" transform="translate(0)">
    <g id="Group_108" data-name="Group 108" transform="translate(0)" clip-path="url(#clip-path)">
      <path id="Path_834" data-name="Path 834" d="M4.3,87.4a6.361,6.361,0,0,1-1.4-.117,1.016,1.016,0,0,1-.719-.487,1.18,1.18,0,0,1,.038-1c.546-1.148,2.986-2.307,5.248-3.168-.206.02-.413.038-.62.055-4.677.383-5.442-.319-5.586-.974a1.4,1.4,0,0,1,.224-1.079c.663-1.034,2.677-1.949,4.688-2.641-2.492.173-5.1.168-5.859-.494A.831.831,0,0,1,0,76.852c0-2.233,7.678-4.052,9.217-4.394.946-.21.987-.5.865-2.635a38.966,38.966,0,0,1,.046-6.014c.793-9.377,3.348-14.519,3.457-14.733l.728.368c-.026.051-2.593,5.23-3.372,14.434a38.273,38.273,0,0,0-.044,5.9c.118,2.067.177,3.105-1.5,3.478-4.73,1.051-8.578,2.665-8.578,3.6.3.622,5.07.528,10.2-.209l.145.8C9,77.914,3.187,79.478,2.167,81.068a.608.608,0,0,0-.115.463c0,.007.28.7,4.718.336,2.415-.2,4.819-.606,4.843-.61l.179.8c-3.2.9-8.2,2.733-8.843,4.091a.386.386,0,0,0-.04.286c1.272.812,16.742-1.514,19.931-4.1,2.144-1.737,1.53-4.92.753-8.948a44.82,44.82,0,0,1-1-7.554c-.194-8.741,2.081-15.975,6.762-21.5,1.115-1.317,2.862-3.063,4.711-4.911.564-.564,1.152-1.152,1.748-1.754a5.779,5.779,0,0,1-.75-2.141C34.262,30.467,38.348,25.3,41.406,24.1c1.463-.574,2.709-.3,3.417.764,1.729,2.586-2.935,7.81-7.931,12.877a3.283,3.283,0,0,0,.907.695c3.078,1.614,9.133-.925,13.42-2.975.588-.281,1.346-.686,2.237-1.189A15.681,15.681,0,0,1,52.1,26.909c.631-8.207,6.742-13.463,13.491-18.562C71.053,4.221,82.272-.428,84.647.031a.832.832,0,0,1,.59.365c.311.518.271,1.381-4.165,5.088-.3.251-.6.5-.9.743,2.9-1.455,6.355-2.975,7.489-2.627a.788.788,0,0,1,.5.4c.3.6.043,1.7-4.114,5.385-.408.361-.819.717-1.219,1.057.474-.242.967-.489,1.464-.73,5.02-2.431,6.151-2.206,6.6-1.667a1.44,1.44,0,0,1,.307,1.171c-.24,1.537-2.617,3.709-7.48,6.836-.946.609-2.428,1.575-4.251,2.765C72.632,23.268,60.865,30.945,54.52,34.6c2.379,5.051,7.225,10.116,13.75,14.084,8.47,5.151,20.64,14.393,21.176,18.814.426,3.511-6.941,13.169-10.737,16.424-1.38,1.183-1.941,1.227-2.275,1.134a1.1,1.1,0,0,1-.767-.832c-.424-1.521.992-4.846,1.621-6.206.309-.668.64-1.328.981-1.962-.3.315-.616.634-.931.95-4.279,4.3-5.419,4.506-6.014,4.092-1.307-.911.34-4.2,1.921-6.958.288-.5.584-1,.877-1.482-.369.382-.753.773-1.142,1.16C68.785,78,67.6,78.2,67,77.855a1.249,1.249,0,0,1-.588-.86c-.486-2.278,3.315-8.163,4.36-9.615a1.8,1.8,0,0,0,.433-1.432c-.2-.908-1.424-1.608-2.505-2.225l-.339-.194c-.379-.22-1.206-.573-2.253-1.022-3.49-1.494-9.988-4.275-13.232-7.886l.607-.545c3.123,3.477,9.513,6.212,12.946,7.681,1.115.477,1.92.822,2.341,1.066l.334.192c1.23.7,2.624,1.5,2.9,2.76a2.592,2.592,0,0,1-.568,2.083c-1.6,2.222-4.581,7.3-4.224,8.967a.437.437,0,0,0,.2.325c.757.285,5.024-3.617,9.326-8.517l.641.5c-.018.026-1.849,2.662-3.427,5.418-2.937,5.131-2.248,5.818-2.16,5.879.068.015.928.086,5.135-4.165,1.7-1.723,3.3-3.5,3.958-4.23q.164-.195.32-.362l.6.548c-.005.006-.14.16-.376.423-2.64,3.138-5.421,9.783-4.98,11.362.063.226.161.254.2.265,0,0,.533.05,2.443-1.816,3.988-3.9,9.88-12.031,9.537-14.858-.45-3.716-11.142-12.348-20.789-18.215A40.507,40.507,0,0,1,56.3,39.156a25.164,25.164,0,0,1-2.5-4.139c-.883.5-1.634.9-2.221,1.179-4.821,2.306-10.787,4.726-14.151,2.962a4.072,4.072,0,0,1-1.1-.838c-.558.562-1.118,1.122-1.67,1.674-1.837,1.836-3.572,3.57-4.665,4.861-4.548,5.371-6.758,12.422-6.569,20.957a44.232,44.232,0,0,0,.981,7.417c.8,4.127,1.484,7.692-1.04,9.737C20.613,85.188,8.912,87.4,4.3,87.4M42.818,24.619a3.124,3.124,0,0,0-1.113.239c-2.814,1.1-6.574,5.869-5.828,10.534a5.156,5.156,0,0,0,.536,1.67c4.453-4.53,9.1-9.7,7.732-11.746a1.51,1.51,0,0,0-1.327-.7M84.241.8C82.105.8,71.969,4.553,66.083,9c-6.595,4.982-12.564,10.1-13.169,17.973a14.814,14.814,0,0,0,1.272,6.881C60.5,30.206,72.214,22.567,79.01,18.133c1.826-1.191,3.309-2.158,4.256-2.767,5.637-3.623,6.98-5.412,7.115-6.275a.622.622,0,0,0-.13-.526c-.023-.022-.63-.537-5.672,1.912-2.637,1.28-5.155,2.729-5.18,2.743l-.453-.677c4.735-3.654,8.587-7.364,8.481-8.162-.153-.064-1.1-.22-5.85,2.075-2.655,1.284-5.173,2.7-5.2,2.71l-.442-.684c4.054-2.99,8.407-6.706,8.578-7.651A.9.9,0,0,0,84.241.8" transform="translate(-0.001 0.001)" fill="#fff"/>
    </g>
  </g>
</svg>
